<svg xmlns="http://www.w3.org/2000/svg" viewBox="0 0 2278.28 2362.03"><defs><style>.cls-1{fill:#fff;}</style></defs><title>Asset 1</title><g id="Layer_2" data-name="Layer 2"><g id="Layer_1-2" data-name="Layer 1"><path class="cls-1" d="M2275.8,1445.48c-10.74-32.47-45.3-42.91-102.72-31.06-170.48,35.19-231.54,10.81-251.58-3.95C2054,1208.6,2163,964.57,2221.84,736.89c27.86-107.85,43.24-208,44.5-289.65,1.39-89.6-13.87-155.45-45.35-195.67C2094.1,89.42,1907.85,2.44,1682.4.06c-155-1.74-285.95,37.92-311.33,49.08a776.16,776.16,0,0,0-175.19-22.5c-116.35-1.88-216.93,26-300.2,82.76-36.17-13.46-129.65-45.55-244-64C454.08,13.61,297,37.71,185,117.11,51.23,211.85-10.5,381.21,1.46,620.47c4,80.49,49.89,328.12,122.27,565.27,95.27,312.13,198.84,488.82,307.81,525.17a137.86,137.86,0,0,0,43.68,7.22c39.75,0,88.49-17.91,139.19-78.87Q707.18,1528,806.25,1422.18a309.11,309.11,0,0,0,138,37.12c.09,1.26.22,2.52.33,3.77q-12.43,14.82-24.33,30.06c-33.35,42.33-40.29,51.15-147.64,73.25-30.54,6.31-111.64,23-112.83,79.87-1.29,62.11,95.87,88.2,106.94,91,38.58,9.66,75.74,14.42,111.18,14.42,86.19,0,162-28.33,222.67-83.15-1.87,221.44,7.37,439.63,34,506.11,21.78,54.43,75,187.43,243,187.42,24.66,0,51.79-2.87,81.65-9.27,175.37-37.59,251.53-115.1,281-286,15.77-91.33,42.82-309.4,55.54-426.38,26.85,8.38,61.42,12.21,98.8,12.21,77.95,0,167.89-16.56,224.3-42.74,63.36-29.43,177.71-101.64,157-164.38ZM1858.17,655c-.58,34.53-5.33,65.88-10.37,98.61-5.43,35.2-11,71.58-12.44,115.76-1.39,43,4,87.68,9.17,130.91,10.49,87.3,21.26,177.18-20.41,265.86a345.66,345.66,0,0,1-18.46-38c-5.18-12.56-16.43-32.72-32-60.64-60.59-108.66-202.48-363.13-129.84-467,21.64-30.91,76.55-62.68,214.37-45.57ZM1691.11,70c202,4.46,361.8,80,474.93,224.6,86.77,110.89-8.78,615.45-285.39,1050.74q-4.17-5.31-8.39-10.58l-3.5-4.37c71.48-118,57.5-234.84,45.06-338.39-5.11-42.5-9.94-82.63-8.71-120.34,1.27-40,6.55-74.24,11.67-107.38,6.28-40.84,12.67-83.1,10.91-132.91a55.08,55.08,0,0,0,1.16-18.73c-4.5-47.77-59-190.74-170.2-320.14-60.81-70.78-149.48-150-270.56-203.41,52.08-10.79,123.29-20.86,203-19.09ZM560.75,1594.64c-55.87,67.17-94.44,54.29-107.13,50.07C371,1617.14,275,1442.42,190.47,1165.37,117.3,925.64,74.54,684.57,71.15,617c-10.68-213.79,41.14-362.78,154-442.84C408.92,43.84,711,121.82,832.37,161.37c-1.74,1.72-3.56,3.33-5.28,5.08C627.9,367.61,632.62,711.29,633.12,732.3c0,8.11.66,19.58,1.59,35.37,3.43,57.81,9.81,165.39-7.23,287.23-15.83,113.22,19.07,224,95.74,304q11.8,12.29,24.78,23.37c-34.13,36.55-108.29,117.37-187.24,212.35Zm212.85-284c-61.79-64.48-89.86-154.17-77-246.09,18-128.7,11.35-240.79,7.78-301-.5-8.43-.95-15.81-1.2-21.64,29.1-25.8,163.94-98,260.11-76,43.88,10,70.62,39.93,81.73,91.33,57.53,266.1,7.61,377-32.5,466.14-8.27,18.36-16.08,35.72-22.74,53.67l-5.17,13.88c-13.09,35.09-25.26,67.72-32.81,98.7-65.69-.19-129.6-28.25-178.19-79Zm10.08,358.87c-19.18-4.79-36.44-13.11-46.56-20,8.46-4,23.5-9.39,49.6-14.77,126.28-26,145.79-44.34,188.38-98.42,9.76-12.4,20.83-26.46,36.16-43.58l0,0c22.83-25.57,33.27-21.23,52.21-13.37,15.35,6.34,30.3,25.58,36.36,46.76,2.87,10,6.09,29-4.45,43.75C1006.43,1694.41,876.79,1692.81,783.68,1669.51Zm660.91,615c-154.49,33.1-209.19-45.72-245.24-135.84-23.26-58.18-34.7-320.52-26.59-610.23a34.91,34.91,0,0,0-1.51-11.08,146.25,146.25,0,0,0-4.32-20.47c-12.06-42.15-41.46-77.42-76.73-92-14-5.8-39.73-16.46-70.64-8.55,6.59-27.16,18-57.83,30.41-91l5.2-14c5.85-15.75,13.2-32.06,21-49.33,42-93.25,99.46-221,37.07-509.51C1089.84,634.4,1011.8,581.62,893.5,593.88c-70.92,7.34-135.81,36-168.17,52.36-7,3.52-13.32,6.93-19.27,10.25,9-108.89,43.16-312.39,170.82-441.15,80.38-81.05,187.42-121.09,317.85-118.93,257,4.2,421.78,136.08,514.78,246,80.14,94.7,123.54,190.09,140.86,241.55-130.24-13.25-218.82,12.46-263.72,76.66-97.69,139.65,53.44,410.68,126.08,540.94,13.32,23.87,24.82,44.5,28.43,53.27,23.65,57.32,54.27,95.6,76.63,123.53,6.86,8.56,13.5,16.86,18.56,24.12-39.45,11.37-110.3,37.65-103.84,169-5.21,65.9-42.24,374.45-61.05,483.46-24.84,144-77.83,197.66-226.84,229.62Zm644.86-738c-40.34,18.72-107.84,32.76-172,35.78-70.83,3.31-106.88-7.93-115.37-14.86-4-81.85,26.48-90.4,58.73-99.45,5.07-1.42,10-2.81,14.78-4.48a120.47,120.47,0,0,0,9.77,7.16c56.93,37.57,158.46,41.62,301.81,12l1.57-.31c-19.34,18.08-52.42,42.33-99.33,64.12Z"/></g></g></svg>