<?xml version="1.0" encoding="UTF-8"?>
<svg viewBox="0 0 125 140" version="1.1" xmlns="http://www.w3.org/2000/svg" xmlns:xlink="http://www.w3.org/1999/xlink">
    <title>&amp;</title>
    <g id="Landing-Page" stroke="none" stroke-width="1" fill="none" fill-rule="evenodd">
        <g id="Desktop" transform="translate(-140.000000, -125.000000)" fill="#ACAAAA" fill-rule="nonzero">
            <g id="Headline-&amp;-Copy" transform="translate(126.000000, 103.000000)">
                <path d="M134,161.4 L138.2,156.6 L110.8,134.6 C116.666663,125 119.6,113.466669 119.6,100 L119.6,92.4 L113,92.4 L113,100 C113,111.466666 110.533337,121.6 105.6,130.4 L74.8,105.8 C60.8,94.7333313 50.9666656,85.7 45.3,78.7 C39.6333344,71.7 36.8,64.2666687 36.8,56.4 C36.8,48.2666626 39.4666656,41.6666626 44.8,36.6 C50.1333344,31.5333374 57.0666687,29 65.6,29 C73.8666687,29 80.6666687,31.3333374 86,36 C91.3333313,40.6666626 94.6,47.8 95.8,57.4 L102.2,55.8 C100.866669,45.2666626 96.9333313,37.1333374 90.4,31.4 C83.8666687,25.6666626 75.6666687,22.8 65.8,22.8 C55.2666687,22.8 46.6666656,25.9333374 40,32.2 C33.3333344,38.4666626 30,46.6 30,56.6 C30,65.9333313 34.0666656,75.2666687 42.2,84.6 C34.0666656,88.3333313 27.4666656,93.5 22.4,100.1 C17.3333313,106.7 14.8,114.333334 14.8,123 C14.8,134.466666 19.1,143.7 27.7,150.7 C36.3,157.7 47.5333313,161.2 61.4,161.2 C80.8666687,161.2 96.1333313,154.066669 107.2,139.8 L134,161.4 Z M61.4,155 C49.5333344,155 39.9,152.066669 32.5,146.2 C25.1,140.333331 21.4,132.6 21.4,123 C21.4,115.533334 23.6,108.933334 28,103.2 C32.4,97.4666687 38.6,92.8666687 46.6,89.4 C51.4,94.2 59.1333313,100.933331 69.8,109.6 L102.2,135.6 C92.3333313,148.533331 78.7333313,155 61.4,155 Z" id="&amp;"></path>
            </g>
        </g>
    </g>
</svg>