<?xml version="1.0" encoding="UTF-8"?>
<svg viewBox="0 0 3423 2842" version="1.1" xmlns="http://www.w3.org/2000/svg" xmlns:xlink="http://www.w3.org/1999/xlink">
    <title>Group</title>
    <defs>
        <linearGradient x1="50%" y1="0%" x2="50%" y2="33.8924106%" id="linearGradient-1">
            <stop stop-color="#6BB5E5" offset="0%"></stop>
            <stop stop-color="#B0D8EC" offset="100%"></stop>
        </linearGradient>
        <linearGradient x1="50%" y1="54.9994287%" x2="53.4470978%" y2="35.23261%" id="linearGradient-2">
            <stop stop-color="#87904A" offset="0%"></stop>
            <stop stop-color="#769BC5" offset="62.3757947%"></stop>
            <stop stop-color="#7096C3" offset="100%"></stop>
        </linearGradient>
        <linearGradient x1="47.0136101%" y1="52.4112219%" x2="50%" y2="40.1133182%" id="linearGradient-3">
            <stop stop-color="#6E6865" offset="0%"></stop>
            <stop stop-color="#6F90BB" offset="100%"></stop>
        </linearGradient>
        <linearGradient x1="51.2875416%" y1="17.0169166%" x2="51.2875416%" y2="89.4715908%" id="linearGradient-4">
            <stop stop-color="#777D3B" offset="0%"></stop>
            <stop stop-color="#252B27" offset="100%"></stop>
        </linearGradient>
        <linearGradient x1="50%" y1="37.9271949%" x2="43.4439023%" y2="60.1056098%" id="linearGradient-5">
            <stop stop-color="#AF9883" offset="0%"></stop>
            <stop stop-color="#718034" offset="100%"></stop>
        </linearGradient>
    </defs>
    <g id="Page-1" stroke="none" stroke-width="1" fill="none" fill-rule="evenodd">
        <g id="Group" transform="translate(-0.000000, 0.000000)">
            <rect id="Rectangle" fill="url(#linearGradient-1)" x="2.72848411e-12" y="0" width="3423" height="2842"></rect>
            <path d="M3.63797881e-12,991.937175 C237.442536,964.073464 404.337035,921.030381 500.683496,862.807926 C520.8148,850.642519 596.435257,823.065359 676.043244,851.050971 C718.062288,865.822462 782.60459,881 885.946319,881 C896.293317,881 926.683046,895.639738 963.287722,881 C969.319579,878.587608 1016.55306,878.587608 1052.22603,914.178921 C1056.88522,918.827453 1100.26991,895.845879 1155.53463,929.348408 C1163.82026,934.371317 1232.07759,954.27649 1312.9669,945.775596 C1324.19068,944.596057 1428.25669,942.82461 1431.03468,956.359679 C1431.87993,960.477988 1442.66842,982.038514 1465.35953,972.505557 C1488.05065,962.972601 1486.16907,966.416459 1520.56863,979.757653 C1544.37977,988.992341 1547.61941,974.424568 1581.07858,979.757653 C1610.08974,984.381765 1696.92101,1014.47404 1758.37904,988.017019 C1769.76304,983.116328 1770.92779,993.217105 1781.19382,994.426372 C1784.77741,994.848494 1814.70997,979.053118 1839.4756,994.426372 C1852.20748,1002.32968 1867.02239,1011.89102 1890.89686,1006.1818 C1900.35193,1003.92076 1900.35193,998.423498 1928.58792,1019.0968 C1933.03504,1022.35281 1963.07818,989.21058 2020.87015,999.917882 C2034.52839,1002.44839 2095.99738,987.6085 2153.49385,962.443953 C2157.13799,960.849015 2222.69547,977.625484 2234.31631,969.360907 C2235.06772,968.82651 2239.47373,969.238994 2247.53433,970.598358 C2251.33959,971.240088 2260.6592,954.881807 2262.98841,958.954793 C2263.60151,960.0269 2266.2007,968.910188 2277.56015,972.505557 C2283.88666,974.507957 2283.88666,974.507957 2307.73733,965.676099 C2311.15263,964.411415 2341.47514,979.757653 2367.23648,976.03561 C2370.39045,975.579918 2383.15892,952.975648 2408.89205,958.954793 C2428.31779,963.4684 2464.18195,979.757653 2516.86144,999.917882 C2536.14809,1007.29881 2572.55,1007.29881 2601.88442,1006.1818 C2614.15236,1005.71465 2626.10304,1022.03471 2642.27778,1023.66878 C2660.64107,1025.52396 2692.86139,1023.66878 2725.63901,1016.69882 C2741.19217,1013.39153 2756.98449,1028.83846 2782.22684,1031.96984 C2794.5486,1033.49839 2789.71516,1047.06202 2830.28232,1052.21987 C2849.52251,1054.66614 2880.02337,1058.45157 2916.71289,1054.96217 C2937.34373,1053.00005 2947.76507,1096.21625 2986.90018,1101.02721 C2998.42972,1102.44456 2992.28783,1134.19516 3008.43819,1138.15162 C3017.38766,1140.34404 3029.08692,1136.75435 3043.16831,1140.50292 C3057.09187,1144.20949 3080.18271,1171.12866 3101.24594,1190.16355 C3104.54866,1193.14822 3112.30117,1184.52644 3118.2151,1193.32396 C3122.96992,1200.3972 3138.51347,1211.77774 3169.80151,1227.31522 C3182.05318,1233.39934 3190.7013,1217.8043 3206.13975,1217.8043 C3240.85948,1217.8043 3269.66508,1248.7806 3307.92835,1248.7806 C3328.71119,1248.7806 3358.0226,1250.11028 3395.8626,1252.76965 C3401.59912,1253.17281 3410.64492,1257.46655 3423,1265.65088 L3423,2563 L3.63797881e-12,2563 L3.63797881e-12,991.937175 Z" id="Rectangle" fill="url(#linearGradient-2)"></path>
            <path d="M2.72848411e-12,1360.22883 C824.602117,1199.02552 1344.72559,1133.96128 1560.37042,1165.03612 C1883.83766,1211.64838 1872.87238,1165.03612 2022.97044,1192.44992 C2235.40001,1231.24791 2162.62342,1251.68492 2291.63096,1251.68492 C2411.76156,1251.68492 2504.6711,1224.34638 2569.15087,1223.28437 C2683.80905,1221.3959 2769.37755,1321.78272 2825.87427,1320.5139 C2943.56724,1317.87072 3007.34209,1281.4386 3036.07423,1281.4386 C3164.15829,1281.4386 3293.13355,1307.70201 3423,1360.22883 L3423,2580 L2.72848411e-12,2580 L2.72848411e-12,1360.22883 Z" id="Rectangle" fill="url(#linearGradient-3)"></path>
            <path d="M0,1423.687 C375.427207,1342.09495 625.37896,1301.29893 749.855259,1301.29893 C936.569708,1301.29893 908.489132,1201.43638 1111.38205,1242.29211 C1314.27498,1283.14785 1368.12857,1235.88296 1494.82283,1259.5154 C1621.51709,1283.14785 1599.09397,1281.67484 1711.5,1281.67484 C1786.43736,1281.67484 1846.63356,1288.2162 1892.08861,1301.29893 C1942.98111,1324.75371 1987.77843,1339.39457 2026.48055,1345.22153 C2084.53373,1353.96197 2079.22536,1345.22153 2148.36936,1360.72545 C2159.203,1363.15464 2218.18572,1371.33742 2253.82466,1374.17819 C2289.46361,1377.01895 2304.83354,1407.0801 2400.63933,1388.13224 C2420.72117,1384.16058 2466.05333,1400.85216 2539.7,1400.85216 C2571.4661,1400.85216 2623.65399,1449.2723 2662.26258,1429.51719 C2679.94559,1420.4692 2734.81895,1414.42017 2761.36802,1437.52993 C2787.91709,1460.63969 2907.72965,1460.57161 2986.20182,1490.87378 C3073.21265,1524.47318 3218.81205,1551.82786 3423,1572.93784 L3423,2687 L0,2687 L0,1423.687 Z" id="Rectangle" fill="url(#linearGradient-4)"></path>
            <path d="M2.72848411e-12,1160 L464.487585,1254.90706 L576.473877,1296.40795 L638.63526,1296.40795 C643.093019,1298.26136 669.142565,1296.0201 716.783898,1289.68418 C788.245898,1280.18029 889.641077,1296.40795 915.87988,1311.60659 C999.828929,1343.81288 1097.22562,1359.68248 1150.91611,1352.45919 C1204.6066,1345.2359 1322.07738,1403.6652 1380.33884,1434.90818 C1438.6003,1466.15117 1410.94418,1439.73974 1498.54507,1474.72886 C1586.14596,1509.71797 1624.64903,1510.6151 1662.50876,1524.6587 C1700.3685,1538.7023 1760.72901,1581.91903 1844.47531,1533.06747 C1863.76991,1521.81239 1932.20623,1526.55536 2080.1068,1524.6587 C2149.89889,1523.76369 2275.56985,1533.06747 2443.31626,1578.36563 C2537.30563,1603.74648 2735.20082,1730.26749 2958.58666,1725.00232 C3033.16324,1723.24456 3187.96769,1746.97879 3423,1796.20501 L3423,2842 L2.72848411e-12,2842 L2.72848411e-12,1160 Z" id="Rectangle" fill="url(#linearGradient-5)"></path>
        </g>
    </g>
</svg>