<?xml version="1.0" encoding="UTF-8"?>
<svg viewBox="0 0 72 52" version="1.1" xmlns="http://www.w3.org/2000/svg" xmlns:xlink="http://www.w3.org/1999/xlink">
    <title>Path</title>
    <g id="Symbols" stroke="none" stroke-width="1" fill="none" fill-rule="evenodd">
        <g id="Initials" transform="translate(1.000000, 1.000000)" fill="#F6F6F6" stroke="#F6F6F6" stroke-width="0.1">
            <path d="M47.3104817,1.42108547e-14 L47.3104817,1.6714545 C45.1160673,1.6714545 44.4526396,1.80499237 44.2520685,3.43784649 L44.2178092,3.77243787 L44.1939939,4.12258266 L44.1787236,4.48754935 L44.1700994,4.8666064 L44.1651543,5.87109375 L44.1651543,24.1882239 L59.6162317,24.1882239 L59.6162317,1.42108547e-14 L70.4658192,1.42108547e-14 L70.4658192,1.6714545 C68.1160223,1.6714545 67.4620918,1.91210119 67.2801365,3.70454698 L67.2504836,4.05962778 C67.246414,4.12014635 67.2427533,4.18132371 67.2394605,4.24314422 L67.2237886,4.62165981 L67.2125184,5.21673183 L67.2102875,5.63055037 L67.2125184,45.5482461 L67.2237886,46.1428298 L67.2394605,46.5210242 C67.2427533,46.5827915 67.246414,46.643916 67.2504836,46.7043819 L67.2801365,47.05915 C67.4562223,48.7922293 67.8422483,49.1718004 70.0115933,49.2417579 L70.4658192,49.2417579 L70.4658192,50.765625 L59.6162317,50.765625 L59.6162317,25.8046875 L44.1651543,25.8046875 L44.1657612,45.112195 L44.171243,45.5384524 L44.1838097,45.95174 C44.1893652,46.087224 44.1963803,46.2203711 44.2051337,46.3510058 L44.2368877,46.735198 C44.4245206,48.6167216 45.0554051,49.1613406 47.0915829,49.2417579 L47.3104817,49.2417579 L47.3104817,50.765625 L36.5714043,50.765625 L36.5717663,14.4909255 C36.5614004,14.4488211 36.5525808,14.3994994 36.5449628,14.3434085 L36.5253684,14.1552769 L36.5109144,13.9292201 L36.4631256,12.6995285 L36.4433411,12.3241867 L36.4162841,11.9270561 L36.3798857,11.5108262 C36.3729259,11.4400123 36.3654907,11.3685147 36.357537,11.2963894 L36.3032475,10.8565532 C36.0176412,8.77301558 35.2243167,5.7217559 33.0443627,4.05962778 C30.4541917,2.08472558 26.5678874,1.52424959 21.0802154,1.6714545 L20.4424981,1.6714545 L20.4424981,44.2265625 C20.4424981,44.4108953 20.4439621,44.5906933 20.4471939,44.7660131 L20.4624966,45.2785946 C20.469568,45.4450146 20.4787111,45.607013 20.4902297,45.7646465 L20.5322163,46.2245082 C20.7642478,48.3099477 21.4978378,48.6899592 23.6140441,49.2417579 L23.8696338,49.2417579 L23.8696338,50.765625 L12.8487481,50.765625 L12.8487481,44.2265625 L12.8487481,1.6714545 L1.42108547e-14,1.6714545 L1.42108547e-14,1.42108547e-14 L47.3104817,1.42108547e-14 Z" id="Path"></path>
        </g>
    </g>
</svg>