<?xml version="1.0" encoding="UTF-8"?>
<svg viewBox="0 0 512 512" version="1.1" xmlns="http://www.w3.org/2000/svg" xmlns:xlink="http://www.w3.org/1999/xlink">
    <title>Spotify Gradient Copy</title>
    <defs>
        <linearGradient x1="50%" y1="0%" x2="50%" y2="100%" id="linearGradient-1">
            <stop stop-color="#3A4249" offset="0%"></stop>
            <stop stop-color="#1B1F23" offset="100%"></stop>
        </linearGradient>
        <linearGradient x1="50%" y1="0%" x2="50%" y2="100%" id="linearGradient-2">
            <stop stop-color="#40ED99" offset="0%"></stop>
            <stop stop-color="#1ED760" offset="100%"></stop>
        </linearGradient>
    </defs>
    <g id="Spotify-Gradient-Copy" stroke="none" stroke-width="1" fill="none" fill-rule="evenodd">
        <g id="Group" fill="url(#linearGradient-1)">
            <path d="M116,0 L396,0 C460.065031,0 512,51.934969 512,116 L512,396 C512,460.065031 460.065031,512 396,512 L116,512 C51.934969,512 0,460.065031 0,396 L0,116 C0,51.934969 51.934969,0 116,0 Z" id="Rectangle"></path>
        </g>
        <g id="Shape" transform="translate(57.000000, 57.000000)" fill="url(#linearGradient-2)" fill-rule="nonzero">
            <path d="M199.498809,0 C89.320998,0 0,89.3207489 0,199.501191 C0,309.686398 89.320998,399 199.498809,399 C309.68853,399 399,309.686398 399,199.501191 C399,89.327896 309.68853,0.00952932537 199.496426,0.00952932537 L199.498809,0 Z M290.987676,287.737979 C287.414265,293.598514 279.743342,295.456733 273.882947,291.859412 C227.042666,263.247613 168.076608,256.767672 98.6333089,272.633999 C91.9414999,274.15869 85.2711315,269.965788 83.7464758,263.271436 C82.2146733,256.577086 86.3908005,249.906558 93.0992853,248.381866 C169.09384,231.019435 234.280016,238.495191 286.866341,270.632841 C292.726737,274.230161 294.584911,281.877445 290.987676,287.737979 L290.987676,287.737979 Z M315.40599,233.41606 C310.903492,240.734582 301.326748,243.045443 294.013166,238.542837 C240.388167,205.5809 158.645184,196.034899 95.2171273,215.288901 C86.9911337,217.773673 78.3029788,213.137656 75.8063551,204.925759 C73.3287897,196.69957 77.967078,188.027883 86.1787781,185.526436 C158.630891,163.542282 248.702305,174.191304 310.2841,212.034636 C317.597681,216.537242 319.908488,226.114215 315.40599,233.418443 L315.40599,233.41606 Z M317.502391,176.849984 C253.204805,138.658831 147.122123,135.147275 85.7332927,153.779488 C75.8754411,156.769313 65.4506081,151.204188 62.463236,141.346101 C59.4758638,131.483249 65.0360924,121.065314 74.9010908,118.068341 C145.371151,96.6750058 262.519497,100.808351 336.546293,144.755217 C345.432177,150.017787 348.338552,161.469653 343.073725,170.324779 C337.832722,179.191816 326.350158,182.114937 317.51192,176.849984 L317.502391,176.849984 Z"></path>
        </g>
    </g>
</svg>