<?xml version="1.0" encoding="UTF-8"?>
<svg viewBox="0 0 512 512" version="1.1" xmlns="http://www.w3.org/2000/svg" xmlns:xlink="http://www.w3.org/1999/xlink">
    <title>Github - Gradient</title>
    <defs>
        <linearGradient x1="50%" y1="0%" x2="50%" y2="100%" id="linearGradient-1">
            <stop stop-color="#9233AF" offset="0%"></stop>
            <stop stop-color="#5E2B8D" offset="100%"></stop>
        </linearGradient>
    </defs>
    <g id="Github---Gradient" stroke="none" stroke-width="1" fill="none" fill-rule="evenodd">
        <rect id="Rectangle" fill="url(#linearGradient-1)" x="0" y="0" width="512" height="512" rx="116"></rect>
        <g id="octocat" transform="translate(47.000000, 52.000000)" fill="#FFFFFF" fill-rule="nonzero">
            <path d="M209.001731,0 C93.5883918,0 0,93.5710866 0,209.001731 C0,301.34417 59.8853573,379.68694 142.928139,407.322874 C153.37338,409.257561 157.208148,402.788988 157.208148,397.268723 C157.208148,392.284909 157.014332,375.821023 156.924347,358.356912 C98.7798635,370.999876 86.5106854,333.69742 86.5106854,333.69742 C77.0033696,309.539773 63.3048068,303.116191 63.3048068,303.116191 C44.3420907,290.144435 64.7341914,290.410929 64.7341914,290.410929 C85.7215817,291.885307 96.7724944,311.948616 96.7724944,311.948616 C115.413339,343.900394 145.665775,334.663035 157.592317,329.32274 C159.468168,315.814531 164.884605,306.594477 170.861718,301.375317 C124.439578,296.090398 75.6397435,278.169438 75.6397435,198.085795 C75.6397435,175.267545 83.8041976,156.623242 97.1739682,141.986752 C95.0039328,136.7226 87.850085,115.465254 99.1986422,86.6768124 C99.1986422,86.6768124 116.749278,81.0596398 156.689,108.100285 C173.360548,103.469493 191.239975,101.147174 209.001731,101.067572 C226.763486,101.147174 244.656759,103.469493 261.359452,108.100285 C301.250722,81.0596398 318.777129,86.6768124 318.777129,86.6768124 C330.153376,115.465254 322.996067,136.7226 320.826031,141.986752 C334.226951,156.623242 342.336029,175.267545 342.336029,198.085795 C342.336029,278.359793 293.442748,296.035024 246.902935,301.20919 C254.399421,307.695071 261.079113,320.414174 261.079113,339.913343 C261.079113,367.878072 260.836846,390.384832 260.836846,397.268723 C260.836846,402.83052 264.598931,409.347547 275.192994,407.295185 C358.190784,379.628101 418,301.313021 418,209.001731 C418,93.5710866 324.425454,0 209.001731,0 Z M78.2779445,297.727377 C77.8176337,298.765671 76.1840506,299.07716 74.6958288,298.364199 C73.1799188,297.682384 72.328518,296.266843 72.8199772,295.225089 C73.2699046,294.155644 74.9069487,293.858 76.4193973,294.574423 C77.9387683,295.256237 78.8040135,296.685622 78.2779445,297.727377 Z M88.5585074,306.900587 C87.5617449,307.824669 85.6132126,307.395507 84.2911176,305.934974 C82.92403,304.477901 82.6679176,302.529368 83.6785239,301.591441 C84.7064352,300.667359 86.5961313,301.099983 87.9666798,302.557056 C89.3337667,304.031433 89.6002625,305.966121 88.5585074,306.900587 Z M95.6113627,318.637395 C94.3308,319.526868 92.2369064,318.69277 90.9424993,316.834224 C89.6619361,314.975677 89.6619361,312.746805 90.9701874,311.853872 C92.2680547,310.960939 94.3308,311.763888 95.6425116,313.60859 C96.9196139,315.498285 96.9196139,317.727156 95.6113627,318.637395 Z M107.539251,332.230276 C106.393666,333.493538 103.953674,333.15436 102.167808,331.430793 C100.34041,329.745292 99.8316457,327.353754 100.980692,326.090496 C102.14012,324.823778 104.593956,325.180259 106.393666,326.889983 C108.20722,328.572022 108.760977,330.980864 107.539251,332.230276 Z M122.954888,336.81908 C122.449585,338.456125 120.099579,339.200235 117.732267,338.504579 C115.368417,337.788156 113.821359,335.870774 114.298974,334.216425 C114.790433,332.568998 117.150822,331.793737 119.535439,332.537848 C121.895828,333.25081 123.446348,335.15435 122.954888,336.81908 Z M140.498531,338.765532 C140.557367,340.489099 138.549998,341.918484 136.065013,341.949635 C133.566185,342.00501 131.544972,340.610236 131.517284,338.914354 C131.517284,337.173481 133.47966,335.75794 135.978489,335.716408 C138.463473,335.667954 140.498531,337.052346 140.498531,338.765532 Z M157.733193,338.104889 C158.030838,339.786928 156.303808,341.513955 153.836129,341.974266 C151.409981,342.417271 149.163804,341.378977 148.855777,339.710785 C148.554672,337.987216 150.31285,336.260187 152.735537,335.813722 C155.206677,335.38456 157.418244,336.395165 157.733193,338.104889 Z" id="Shape"></path>
        </g>
    </g>
</svg>